<?xml version="1.0" encoding="UTF-8"?>
<svg xmlns="http://www.w3.org/2000/svg" xmlns:xlink="http://www.w3.org/1999/xlink" width="398.295" height="142.528" viewBox="0 0 398.295 142.528">
<defs>
<clipPath id="clip-0">
<path clip-rule="nonzero" d="M 0 0 L 398.296875 0 L 398.296875 142.527344 L 0 142.527344 Z M 0 0 "/>
</clipPath>
</defs>
<path fill="none" stroke-width="0.09962" stroke-linecap="butt" stroke-linejoin="miter" stroke="rgb(84.999084%, 84.999084%, 84.999084%)" stroke-opacity="1" stroke-dasharray="0.3985 0.99628" stroke-miterlimit="10" d="M 35.217281 -0.0008125 L 35.217281 125.245281 M 49.307125 -0.0008125 L 49.307125 125.245281 M 77.482906 -0.0008125 L 77.482906 125.245281 M 91.568844 -0.0008125 L 91.568844 125.245281 M 119.744625 -0.0008125 L 119.744625 125.245281 M 133.834469 -0.0008125 L 133.834469 125.245281 M 162.006344 -0.0008125 L 162.006344 125.245281 M 176.096188 -0.0008125 L 176.096188 125.245281 M 204.271969 -0.0008125 L 204.271969 125.245281 M 218.357906 -0.0008125 L 218.357906 125.245281 M 246.533688 -0.0008125 L 246.533688 125.245281 M 260.623531 -0.0008125 L 260.623531 125.245281 M 288.795406 -0.0008125 L 288.795406 125.245281 M 302.88525 -0.0008125 L 302.88525 125.245281 M 331.061031 -0.0008125 L 331.061031 125.245281 M 345.146969 -0.0008125 L 345.146969 125.245281 " transform="matrix(1, 0, 0, -1, 14.146, 128.382)"/>
<path fill="none" stroke-width="0.29887" stroke-linecap="butt" stroke-linejoin="miter" stroke="rgb(84.999084%, 84.999084%, 84.999084%)" stroke-opacity="1" stroke-dasharray="0.3985 0.99628" stroke-miterlimit="10" d="M 21.131344 -0.0008125 L 21.131344 125.245281 M 63.393062 -0.0008125 L 63.393062 125.245281 M 105.658687 -0.0008125 L 105.658687 125.245281 M 147.920406 -0.0008125 L 147.920406 125.245281 M 190.182125 -0.0008125 L 190.182125 125.245281 M 232.44775 -0.0008125 L 232.44775 125.245281 M 274.709469 -0.0008125 L 274.709469 125.245281 M 316.971187 -0.0008125 L 316.971187 125.245281 M 359.236812 -0.0008125 L 359.236812 125.245281 " transform="matrix(1, 0, 0, -1, 14.146, 128.382)"/>
<path fill="none" stroke-width="0.09962" stroke-linecap="butt" stroke-linejoin="miter" stroke="rgb(84.999084%, 84.999084%, 84.999084%)" stroke-opacity="1" stroke-dasharray="0.3985 0.99628" stroke-miterlimit="10" d="M -0.00146875 9.514813 L 380.365719 9.514813 M -0.00146875 19.026531 L 380.365719 19.026531 M -0.00146875 38.053875 L 380.365719 38.053875 M -0.00146875 47.565594 L 380.365719 47.565594 M -0.00146875 66.592938 L 380.365719 66.592938 M -0.00146875 76.108563 L 380.365719 76.108563 M -0.00146875 95.135906 L 380.365719 95.135906 M -0.00146875 104.647625 L 380.365719 104.647625 " transform="matrix(1, 0, 0, -1, 14.146, 128.382)"/>
<path fill="none" stroke-width="0.29887" stroke-linecap="butt" stroke-linejoin="miter" stroke="rgb(84.999084%, 84.999084%, 84.999084%)" stroke-opacity="1" stroke-dasharray="0.3985 0.99628" stroke-miterlimit="10" d="M -0.00146875 -0.0008125 L 380.365719 -0.0008125 M -0.00146875 28.53825 L 380.365719 28.53825 M -0.00146875 57.081219 L 380.365719 57.081219 M -0.00146875 85.620281 L 380.365719 85.620281 M -0.00146875 114.159344 L 380.365719 114.159344 " transform="matrix(1, 0, 0, -1, 14.146, 128.382)"/>
<path fill="none" stroke-width="0.09962" stroke-linecap="butt" stroke-linejoin="miter" stroke="rgb(0%, 0%, 0%)" stroke-opacity="1" stroke-miterlimit="10" d="M 35.217281 -1.993 L 35.217281 -0.0008125 M 49.307125 -1.993 L 49.307125 -0.0008125 M 77.482906 -1.993 L 77.482906 -0.0008125 M 91.568844 -1.993 L 91.568844 -0.0008125 M 119.744625 -1.993 L 119.744625 -0.0008125 M 133.834469 -1.993 L 133.834469 -0.0008125 M 162.006344 -1.993 L 162.006344 -0.0008125 M 176.096188 -1.993 L 176.096188 -0.0008125 M 204.271969 -1.993 L 204.271969 -0.0008125 M 218.357906 -1.993 L 218.357906 -0.0008125 M 246.533688 -1.993 L 246.533688 -0.0008125 M 260.623531 -1.993 L 260.623531 -0.0008125 M 288.795406 -1.993 L 288.795406 -0.0008125 M 302.88525 -1.993 L 302.88525 -0.0008125 M 331.061031 -1.993 L 331.061031 -0.0008125 M 345.146969 -1.993 L 345.146969 -0.0008125 " transform="matrix(1, 0, 0, -1, 14.146, 128.382)"/>
<path fill="none" stroke-width="0.29887" stroke-linecap="butt" stroke-linejoin="miter" stroke="rgb(0%, 0%, 0%)" stroke-opacity="1" stroke-miterlimit="10" d="M 21.131344 -3.985187 L 21.131344 -0.0008125 M 63.393062 -3.985187 L 63.393062 -0.0008125 M 105.658687 -3.985187 L 105.658687 -0.0008125 M 147.920406 -3.985187 L 147.920406 -0.0008125 M 190.182125 -3.985187 L 190.182125 -0.0008125 M 232.44775 -3.985187 L 232.44775 -0.0008125 M 274.709469 -3.985187 L 274.709469 -0.0008125 M 316.971187 -3.985187 L 316.971187 -0.0008125 M 359.236812 -3.985187 L 359.236812 -0.0008125 " transform="matrix(1, 0, 0, -1, 14.146, 128.382)"/>
<path fill="none" stroke-width="0.09962" stroke-linecap="butt" stroke-linejoin="miter" stroke="rgb(0%, 0%, 0%)" stroke-opacity="1" stroke-miterlimit="10" d="M -1.993656 9.514813 L -0.00146875 9.514813 M -1.993656 19.026531 L -0.00146875 19.026531 M -1.993656 38.053875 L -0.00146875 38.053875 M -1.993656 47.565594 L -0.00146875 47.565594 M -1.993656 66.592938 L -0.00146875 66.592938 M -1.993656 76.108563 L -0.00146875 76.108563 M -1.993656 95.135906 L -0.00146875 95.135906 M -1.993656 104.647625 L -0.00146875 104.647625 " transform="matrix(1, 0, 0, -1, 14.146, 128.382)"/>
<path fill="none" stroke-width="0.29887" stroke-linecap="butt" stroke-linejoin="miter" stroke="rgb(0%, 0%, 0%)" stroke-opacity="1" stroke-miterlimit="10" d="M -3.985844 -0.0008125 L -0.00146875 -0.0008125 M -3.985844 28.53825 L -0.00146875 28.53825 M -3.985844 57.081219 L -0.00146875 57.081219 M -3.985844 85.620281 L -0.00146875 85.620281 M -3.985844 114.159344 L -0.00146875 114.159344 " transform="matrix(1, 0, 0, -1, 14.146, 128.382)"/>
<path fill-rule="nonzero" fill="rgb(78.62854%, 68.235779%, 82.743835%)" fill-opacity="1" d="M 214.894531 18.027344 L 214.980469 18.082031 L 216.5 19.148438 L 218.023438 20.34375 L 219.542969 21.667969 L 221.066406 23.109375 L 222.585938 24.667969 L 224.109375 26.332031 L 225.628906 28.101562 L 227.152344 29.96875 L 228.671875 31.925781 L 230.195312 33.96875 L 231.714844 36.085938 L 233.238281 38.269531 L 234.757812 40.519531 L 236.28125 42.824219 L 237.800781 45.175781 L 239.324219 47.566406 L 240.84375 49.992188 L 242.367188 52.441406 L 243.886719 54.910156 L 245.410156 57.390625 L 246.929688 59.875 L 248.453125 62.359375 L 249.972656 64.835938 L 251.496094 67.296875 L 253.015625 69.742188 L 254.539062 72.160156 L 256.058594 74.550781 L 257.160156 76.25 L 257.164062 128.382812 L 214.898438 128.382812 Z M 214.894531 18.027344 "/>
<path fill="none" stroke-width="0.79701" stroke-linecap="butt" stroke-linejoin="miter" stroke="rgb(0%, 0%, 0%)" stroke-opacity="1" stroke-miterlimit="10" d="M 200.748531 -0.0008125 L 200.748531 110.382 " transform="matrix(1, 0, 0, -1, 14.146, 128.382)"/>
<path fill="none" stroke-width="0.79701" stroke-linecap="butt" stroke-linejoin="miter" stroke="rgb(0%, 0%, 0%)" stroke-opacity="1" stroke-miterlimit="10" d="M 243.014156 -0.0008125 L 243.014156 52.139813 " transform="matrix(1, 0, 0, -1, 14.146, 128.382)"/>
<g clip-path="url(#clip-0)">
<path fill="none" stroke-width="1.59404" stroke-linecap="butt" stroke-linejoin="miter" stroke="rgb(25.881958%, 22.3526%, 37.255859%)" stroke-opacity="1" stroke-miterlimit="10" d="M -0.00146875 0.00309375 L 1.521969 0.007 L 6.084469 0.007 L 7.607906 0.0109063 L 9.127438 0.0109063 L 10.650875 0.0148125 L 12.170406 0.0148125 L 13.693844 0.0187188 L 15.213375 0.022625 L 16.736812 0.0265313 L 18.256344 0.0304375 L 19.779781 0.0343438 L 21.299312 0.03825 L 22.82275 0.0460625 L 24.342281 0.0499688 L 25.865719 0.0577813 L 27.38525 0.0695 L 28.908687 0.0773125 L 30.428219 0.0890313 L 31.951656 0.104656 L 33.471187 0.116375 L 34.994625 0.135906 L 36.514156 0.151531 L 38.037594 0.174969 L 39.557125 0.198406 L 41.080562 0.22575 L 42.600094 0.257 L 44.123531 0.292156 L 45.643062 0.327313 L 47.1665 0.370281 L 48.686031 0.421063 L 50.209469 0.471844 L 51.729 0.530438 L 53.252437 0.596844 L 54.771969 0.671063 L 56.295406 0.753094 L 57.814937 0.842938 L 59.338375 0.9445 L 60.857906 1.053875 L 62.381344 1.174969 L 63.900875 1.311688 L 65.424312 1.460125 L 66.943844 1.620281 L 68.467281 1.799969 L 69.986812 1.995281 L 71.51025 2.210125 L 73.029781 2.440594 L 74.553219 2.698406 L 76.07275 2.97575 L 77.596187 3.276531 L 79.115719 3.604656 L 80.639156 3.956219 L 82.158687 4.342938 L 83.682125 4.757 L 85.201656 5.206219 L 86.725094 5.690594 L 88.244625 6.210125 L 89.768062 6.768719 L 91.287594 7.366375 L 92.811031 8.010906 L 94.330562 8.698406 L 95.854 9.432781 L 97.373531 10.214031 L 98.896969 11.046063 L 100.4165 11.932781 L 101.939937 12.874188 L 103.459469 13.870281 L 104.982906 14.921063 L 106.502437 16.034344 L 108.025875 17.210125 L 109.545406 18.4445 L 111.068844 19.741375 L 112.588375 21.104656 L 114.111812 22.534344 L 115.631344 24.026531 L 117.154781 25.585125 L 118.674312 27.210125 L 120.19775 28.897625 L 121.717281 30.655438 L 123.240719 32.47575 L 124.76025 34.358563 L 126.283687 36.303875 L 127.803219 38.307781 L 129.326656 40.374188 L 130.846188 42.495281 L 132.369625 44.667156 L 133.889156 46.893719 L 135.412594 49.16325 L 136.932125 51.479656 L 138.455563 53.831219 L 139.975094 56.221844 L 141.498531 58.639813 L 143.018063 61.085125 L 144.5415 63.546063 L 146.061031 66.022625 L 147.584469 68.507 L 149.104 70.991375 L 150.627438 73.471844 L 152.146969 75.940594 L 153.670406 78.389813 L 155.189938 80.815594 L 156.713375 83.206219 L 158.232906 85.557781 L 159.752438 87.862469 L 161.275875 90.112469 L 162.795406 92.296063 L 164.318844 94.41325 L 165.838375 96.456219 L 167.361813 98.41325 L 168.881344 100.280438 L 170.404781 102.049969 L 171.924313 103.714031 L 173.44775 105.272625 L 174.967281 106.714031 L 176.490719 108.03825 L 178.01025 109.233563 L 179.533688 110.299969 L 181.053219 111.233563 L 182.576656 112.030438 L 184.096188 112.686688 L 185.619625 113.198406 L 187.139156 113.565594 L 188.662594 113.784344 L 190.182125 113.858563 L 191.705563 113.784344 L 193.225094 113.565594 L 194.748531 113.198406 L 196.268063 112.686688 L 197.7915 112.030438 L 199.311031 111.233563 L 200.834469 110.299969 L 202.354 109.233563 L 203.877438 108.03825 L 205.396969 106.714031 L 206.920406 105.272625 L 208.439938 103.714031 L 209.963375 102.049969 L 211.482906 100.280438 L 213.006344 98.41325 L 214.525875 96.456219 L 216.049313 94.41325 L 217.568844 92.296063 L 219.092281 90.112469 L 220.611813 87.862469 L 222.13525 85.557781 L 223.654781 83.206219 L 225.178219 80.815594 L 226.69775 78.389813 L 228.221188 75.940594 L 229.740719 73.471844 L 231.264156 70.991375 L 232.783688 68.507 L 234.307125 66.022625 L 235.826656 63.546063 L 237.350094 61.085125 L 238.869625 58.639813 L 240.393063 56.221844 L 241.912594 53.831219 L 243.436031 51.479656 L 244.955563 49.16325 L 246.479 46.893719 L 247.998531 44.667156 L 249.521969 42.495281 L 251.0415 40.374188 L 252.564938 38.307781 L 254.084469 36.303875 L 255.607906 34.358563 L 257.127437 32.47575 L 258.650875 30.655438 L 260.170406 28.897625 L 261.693844 27.210125 L 263.213375 25.585125 L 264.736812 24.026531 L 266.256344 22.534344 L 267.779781 21.104656 L 269.299312 19.741375 L 270.82275 18.4445 L 272.342281 17.210125 L 273.865719 16.034344 L 275.38525 14.921063 L 276.908687 13.870281 L 278.428219 12.874188 L 279.951656 11.932781 L 281.471187 11.046063 L 282.994625 10.214031 L 284.514156 9.432781 L 286.037594 8.698406 L 287.557125 8.010906 L 289.080562 7.366375 L 290.600094 6.768719 L 292.123531 6.210125 L 293.643062 5.690594 L 295.1665 5.206219 L 296.686031 4.757 L 298.209469 4.342938 L 299.729 3.956219 L 301.252437 3.604656 L 302.771969 3.276531 L 304.295406 2.97575 L 305.814937 2.698406 L 307.338375 2.440594 L 308.857906 2.210125 L 310.381344 1.995281 L 311.900875 1.799969 L 313.424312 1.620281 L 314.943844 1.460125 L 316.467281 1.311688 L 317.986812 1.174969 L 319.51025 1.053875 L 321.029781 0.9445 L 322.553219 0.842938 L 324.07275 0.753094 L 325.596187 0.671063 L 327.115719 0.596844 L 328.639156 0.530438 L 330.158687 0.471844 L 331.682125 0.421063 L 333.201656 0.370281 L 334.725094 0.327313 L 336.244625 0.292156 L 337.768062 0.257 L 339.287594 0.22575 L 340.811031 0.198406 L 342.330562 0.174969 L 343.854 0.151531 L 345.373531 0.135906 L 346.896969 0.116375 L 348.4165 0.104656 L 349.939937 0.0890313 L 351.459469 0.0773125 L 352.982906 0.0695 L 354.502437 0.0577813 L 356.025875 0.0499688 L 357.545406 0.0460625 L 359.068844 0.03825 L 360.588375 0.0343438 L 362.111812 0.0304375 L 363.631344 0.0265313 L 365.154781 0.022625 L 368.193844 0.0148125 L 369.717281 0.0148125 L 371.236812 0.0109063 L 372.76025 0.0109063 L 374.279781 0.007 L 378.846187 0.007 L 380.365719 0.00309375 " transform="matrix(1, 0, 0, -1, 14.146, 128.382)"/>
</g>
</svg>
